<mxfile host="app.diagrams.net" modified="2022-04-13T09:30:54.164Z" agent="5.0 (X11)" etag="SQCfWqxJo56roy-bOOjK" version="17.1.3" type="github">
  <diagram id="dUaKP_INnIbJ7J_q9_gv" name="Page-1">
    <mxGraphModel dx="2272" dy="814" grid="1" gridSize="10" guides="1" tooltips="1" connect="1" arrows="1" fold="1" page="1" pageScale="1" pageWidth="850" pageHeight="1100" math="0" shadow="0">
      <root>
        <mxCell id="0" />
        <mxCell id="1" parent="0" />
        <mxCell id="DeQcIR5LJ7hlBDvHYIzj-31" value="s_rst" style="ellipse;shape=doubleEllipse;whiteSpace=wrap;html=1;aspect=fixed;" vertex="1" parent="1">
          <mxGeometry x="660" y="390" width="80" height="80" as="geometry" />
        </mxCell>
        <mxCell id="DeQcIR5LJ7hlBDvHYIzj-32" value="s_config_wait" style="ellipse;whiteSpace=wrap;html=1;aspect=fixed;" vertex="1" parent="1">
          <mxGeometry x="820" y="590" width="80" height="80" as="geometry" />
        </mxCell>
        <mxCell id="DeQcIR5LJ7hlBDvHYIzj-33" value="s_config_wr" style="ellipse;whiteSpace=wrap;html=1;aspect=fixed;" vertex="1" parent="1">
          <mxGeometry x="1100" y="670" width="80" height="80" as="geometry" />
        </mxCell>
        <mxCell id="DeQcIR5LJ7hlBDvHYIzj-34" value="s_config_done" style="ellipse;whiteSpace=wrap;html=1;aspect=fixed;" vertex="1" parent="1">
          <mxGeometry x="740" y="790" width="80" height="80" as="geometry" />
        </mxCell>
        <mxCell id="DeQcIR5LJ7hlBDvHYIzj-35" value="&lt;div&gt;s_meas_start&lt;/div&gt;&lt;div&gt;_wr&lt;br&gt;&lt;/div&gt;" style="ellipse;whiteSpace=wrap;html=1;aspect=fixed;" vertex="1" parent="1">
          <mxGeometry x="460" y="950" width="80" height="80" as="geometry" />
        </mxCell>
        <mxCell id="DeQcIR5LJ7hlBDvHYIzj-36" value="&lt;div&gt;s_meas_start&lt;/div&gt;&lt;div&gt;_wait&lt;/div&gt;" style="ellipse;whiteSpace=wrap;html=1;aspect=fixed;" vertex="1" parent="1">
          <mxGeometry x="280" y="1070" width="80" height="80" as="geometry" />
        </mxCell>
        <mxCell id="DeQcIR5LJ7hlBDvHYIzj-37" value="&lt;div&gt;s_meas_start&lt;/div&gt;&lt;div&gt;_done&lt;br&gt;&lt;/div&gt;" style="ellipse;whiteSpace=wrap;html=1;aspect=fixed;" vertex="1" parent="1">
          <mxGeometry x="220" y="870" width="80" height="80" as="geometry" />
        </mxCell>
        <mxCell id="DeQcIR5LJ7hlBDvHYIzj-38" value="&lt;div&gt;s_meas_done&lt;/div&gt;&lt;div&gt;_wr&lt;br&gt;&lt;/div&gt;" style="ellipse;whiteSpace=wrap;html=1;aspect=fixed;" vertex="1" parent="1">
          <mxGeometry x="20" y="750" width="80" height="80" as="geometry" />
        </mxCell>
        <mxCell id="DeQcIR5LJ7hlBDvHYIzj-39" value="&lt;div&gt;s_meas_done&lt;/div&gt;&lt;div&gt;_wr_done&lt;br&gt;&lt;/div&gt;" style="ellipse;whiteSpace=wrap;html=1;aspect=fixed;" vertex="1" parent="1">
          <mxGeometry x="-180" y="750" width="80" height="80" as="geometry" />
        </mxCell>
        <mxCell id="DeQcIR5LJ7hlBDvHYIzj-40" value="&lt;div&gt;s_meas_done&lt;/div&gt;&lt;div&gt;_rd&lt;br&gt;&lt;/div&gt;" style="ellipse;whiteSpace=wrap;html=1;aspect=fixed;" vertex="1" parent="1">
          <mxGeometry x="20" y="590" width="80" height="80" as="geometry" />
        </mxCell>
        <mxCell id="DeQcIR5LJ7hlBDvHYIzj-41" value="&lt;div&gt;s_meas_done&lt;/div&gt;&lt;div&gt;_rd_done&lt;br&gt;&lt;/div&gt;" style="ellipse;whiteSpace=wrap;html=1;aspect=fixed;" vertex="1" parent="1">
          <mxGeometry x="-180" y="590" width="80" height="80" as="geometry" />
        </mxCell>
        <mxCell id="DeQcIR5LJ7hlBDvHYIzj-42" value="&lt;div&gt;s_rd_meas&lt;/div&gt;&lt;div&gt;_wr&lt;br&gt;&lt;/div&gt;" style="ellipse;whiteSpace=wrap;html=1;aspect=fixed;" vertex="1" parent="1">
          <mxGeometry x="-150" y="350" width="80" height="80" as="geometry" />
        </mxCell>
        <mxCell id="DeQcIR5LJ7hlBDvHYIzj-43" value="&lt;div&gt;s_rd_meas&lt;/div&gt;&lt;div&gt;_wr&lt;br&gt;&lt;/div&gt;_done" style="ellipse;whiteSpace=wrap;html=1;aspect=fixed;" vertex="1" parent="1">
          <mxGeometry x="20" y="270" width="80" height="80" as="geometry" />
        </mxCell>
        <mxCell id="DeQcIR5LJ7hlBDvHYIzj-44" value="&lt;div&gt;s_rd_meas&lt;/div&gt;&lt;div&gt;_rd&lt;br&gt;&lt;/div&gt;" style="ellipse;whiteSpace=wrap;html=1;aspect=fixed;" vertex="1" parent="1">
          <mxGeometry x="130" y="420" width="80" height="80" as="geometry" />
        </mxCell>
        <mxCell id="DeQcIR5LJ7hlBDvHYIzj-45" value="&lt;div&gt;s_rd_meas&lt;/div&gt;&lt;div&gt;_rd_wait&lt;/div&gt;" style="ellipse;whiteSpace=wrap;html=1;aspect=fixed;" vertex="1" parent="1">
          <mxGeometry x="310" y="285" width="80" height="80" as="geometry" />
        </mxCell>
        <mxCell id="DeQcIR5LJ7hlBDvHYIzj-46" value="&lt;div&gt;s_rd_meas&lt;/div&gt;&lt;div&gt;_rd_done&lt;/div&gt;" style="ellipse;whiteSpace=wrap;html=1;aspect=fixed;" vertex="1" parent="1">
          <mxGeometry x="330" y="570" width="80" height="80" as="geometry" />
        </mxCell>
        <mxCell id="DeQcIR5LJ7hlBDvHYIzj-47" value="" style="curved=1;endArrow=classic;html=1;rounded=0;" edge="1" parent="1" source="DeQcIR5LJ7hlBDvHYIzj-31" target="DeQcIR5LJ7hlBDvHYIzj-32">
          <mxGeometry width="50" height="50" relative="1" as="geometry">
            <mxPoint x="740" y="580" as="sourcePoint" />
            <mxPoint x="790" y="530" as="targetPoint" />
            <Array as="points">
              <mxPoint x="800" y="500" />
            </Array>
          </mxGeometry>
        </mxCell>
        <mxCell id="DeQcIR5LJ7hlBDvHYIzj-48" value="&lt;div&gt;Ports:&lt;/div&gt;&lt;div&gt;&lt;ul&gt;&lt;li&gt;i2c_ena : out std_logic - output assignment&lt;br&gt;&lt;/li&gt;&lt;li&gt;i2c_addr : out std_logic_vector - constant&lt;br&gt;&lt;/li&gt;&lt;li&gt;i2c_rw : out std_logic - output assignment&lt;br&gt;&lt;/li&gt;&lt;li&gt;i2c_data_wr : out std_logic_vector - concurrent assignment&lt;br&gt;&lt;/li&gt;&lt;li&gt;i2c_busy : in std_logic&lt;/li&gt;&lt;li&gt;i2c_data_rd : in std_logic_vector&lt;/li&gt;&lt;li&gt;irq_out : out std_logic_vector : transition_assignment&lt;br&gt;&lt;/li&gt;&lt;li&gt;x_dout : out std_logic_vector : transition_assignment&lt;br&gt;&lt;/li&gt;&lt;li&gt;y_out : out std_logic_vector : transition_assignment&lt;/li&gt;&lt;li&gt;z_out : out std_logic_vector : transition_assignment&lt;/li&gt;&lt;/ul&gt;&lt;div&gt;Signals:&lt;/div&gt;&lt;div&gt;&lt;ul&gt;&lt;li&gt;config_data : CONFIG_DATA_TYPE&lt;/li&gt;&lt;li&gt;cmd_data : CMD_DATA_TYPE&lt;br&gt;&lt;/li&gt;&lt;li&gt;config_ptr : unsigned&lt;/li&gt;&lt;li&gt;cmd_ptr : unsigned&lt;/li&gt;&lt;li&gt;is_done : std_logic_vector&lt;/li&gt;&lt;li&gt;data_wr : std_logic_vector&lt;br&gt;&lt;/li&gt;&lt;li&gt;data_rd : DATA_RD_TYPE&lt;/li&gt;&lt;li&gt;data_rd_cnt : unsigned&lt;/li&gt;&lt;/ul&gt;&lt;/div&gt;&lt;div&gt;&lt;br&gt;&lt;/div&gt;&lt;div&gt;Concurrent statements:&lt;/div&gt;&lt;div&gt;&lt;ul&gt;&lt;li&gt;i2c_addr &amp;lt;= MAG_I2C_ADDR&lt;/li&gt;&lt;li&gt;data_wr &amp;lt;= config_data(config_ptr) when config_ptr &amp;lt;= CONFIG_MAX else cmd_data(cmd_ptr)&lt;/li&gt;&lt;li&gt;i2c_data_wr &amp;lt;= data_wr&lt;/li&gt;&lt;li&gt;x_dout &amp;lt;= data_rd(1) &amp;amp; data_rd(0)(7 downto 4)&lt;/li&gt;&lt;li&gt;y_dout &amp;lt;= data_rd(3) &amp;amp; data_rd(2)(7 downto 4)&lt;/li&gt;&lt;li&gt;z_dout &amp;lt;= data_rd(5) &amp;amp; data_rd(4)(7 downto 4)&lt;/li&gt;&lt;/ul&gt;&lt;/div&gt;&lt;/div&gt;&lt;div align=&quot;left&quot;&gt;&lt;br&gt;&lt;/div&gt;" style="rounded=0;whiteSpace=wrap;html=1;align=left;" vertex="1" parent="1">
          <mxGeometry x="1330" y="240" width="400" height="530" as="geometry" />
        </mxCell>
        <mxCell id="DeQcIR5LJ7hlBDvHYIzj-49" value="&lt;div&gt;i2c_ena &amp;lt;= &#39;0&#39;&lt;/div&gt;&lt;div&gt;i2c_rw &amp;lt;= &#39;0&#39;&lt;br&gt;&lt;/div&gt;" style="text;html=1;align=center;verticalAlign=middle;resizable=0;points=[];autosize=1;strokeColor=none;fillColor=none;" vertex="1" parent="1">
          <mxGeometry x="650" y="350" width="90" height="30" as="geometry" />
        </mxCell>
        <mxCell id="DeQcIR5LJ7hlBDvHYIzj-50" value="/ irq_out &amp;lt;= &quot;000&quot;&lt;br&gt;data_rd &amp;lt;= (others =&amp;gt; (others =&amp;gt; &#39;0&#39;))&lt;br&gt;&lt;div&gt;config_ptr &amp;lt;= 0&lt;/div&gt;&lt;div&gt;cmd_ptr &amp;lt;= 0&lt;br&gt;&lt;/div&gt;" style="text;html=1;align=center;verticalAlign=middle;resizable=0;points=[];autosize=1;strokeColor=none;fillColor=none;" vertex="1" parent="1">
          <mxGeometry x="750" y="445" width="210" height="60" as="geometry" />
        </mxCell>
        <mxCell id="DeQcIR5LJ7hlBDvHYIzj-51" value="" style="curved=1;endArrow=classic;html=1;rounded=0;" edge="1" parent="1" source="DeQcIR5LJ7hlBDvHYIzj-32" target="DeQcIR5LJ7hlBDvHYIzj-33">
          <mxGeometry width="50" height="50" relative="1" as="geometry">
            <mxPoint x="1040" y="630" as="sourcePoint" />
            <mxPoint x="1090" y="580" as="targetPoint" />
            <Array as="points">
              <mxPoint x="1010" y="630" />
            </Array>
          </mxGeometry>
        </mxCell>
        <mxCell id="DeQcIR5LJ7hlBDvHYIzj-52" value="i2c_busy = &#39;0&#39; /" style="text;html=1;align=center;verticalAlign=middle;resizable=0;points=[];autosize=1;strokeColor=none;fillColor=none;" vertex="1" parent="1">
          <mxGeometry x="980" y="620" width="90" height="20" as="geometry" />
        </mxCell>
        <mxCell id="DeQcIR5LJ7hlBDvHYIzj-53" value="&lt;div&gt;i2c_ena &amp;lt;= &#39;0&#39;&lt;/div&gt;&lt;div&gt;i2c_rw &amp;lt;= &#39;0&#39;&lt;br&gt;&lt;/div&gt;" style="text;html=1;align=center;verticalAlign=middle;resizable=0;points=[];autosize=1;strokeColor=none;fillColor=none;" vertex="1" parent="1">
          <mxGeometry x="850" y="560" width="90" height="30" as="geometry" />
        </mxCell>
        <mxCell id="DeQcIR5LJ7hlBDvHYIzj-54" value="&lt;div&gt;i2c_ena &amp;lt;= &#39;1&#39;&lt;/div&gt;&lt;div&gt;i2c_rw &amp;lt;= &#39;0&#39;&lt;br&gt;&lt;/div&gt;" style="text;html=1;align=center;verticalAlign=middle;resizable=0;points=[];autosize=1;strokeColor=none;fillColor=none;" vertex="1" parent="1">
          <mxGeometry x="1180" y="695" width="90" height="30" as="geometry" />
        </mxCell>
        <mxCell id="DeQcIR5LJ7hlBDvHYIzj-55" value="" style="curved=1;endArrow=classic;html=1;rounded=0;" edge="1" parent="1" source="DeQcIR5LJ7hlBDvHYIzj-33" target="DeQcIR5LJ7hlBDvHYIzj-32">
          <mxGeometry width="50" height="50" relative="1" as="geometry">
            <mxPoint x="950" y="790" as="sourcePoint" />
            <mxPoint x="1000" y="740" as="targetPoint" />
            <Array as="points">
              <mxPoint x="950" y="760" />
            </Array>
          </mxGeometry>
        </mxCell>
        <mxCell id="DeQcIR5LJ7hlBDvHYIzj-56" value="/ config_ptr &amp;lt;= config_ptr + 1" style="text;html=1;align=center;verticalAlign=middle;resizable=0;points=[];autosize=1;strokeColor=none;fillColor=none;" vertex="1" parent="1">
          <mxGeometry x="900" y="740" width="170" height="20" as="geometry" />
        </mxCell>
        <mxCell id="DeQcIR5LJ7hlBDvHYIzj-57" value="" style="curved=1;endArrow=classic;html=1;rounded=0;" edge="1" parent="1" source="DeQcIR5LJ7hlBDvHYIzj-32" target="DeQcIR5LJ7hlBDvHYIzj-34">
          <mxGeometry width="50" height="50" relative="1" as="geometry">
            <mxPoint x="670" y="740" as="sourcePoint" />
            <mxPoint x="720" y="690" as="targetPoint" />
            <Array as="points">
              <mxPoint x="780" y="710" />
            </Array>
          </mxGeometry>
        </mxCell>
        <mxCell id="DeQcIR5LJ7hlBDvHYIzj-58" value="&lt;div&gt;config_ptr &amp;gt; CONFIG_MAX &lt;br&gt;&lt;/div&gt;&lt;div&gt;and i2c_busy = &#39;0&#39; /&lt;/div&gt;&lt;div&gt;cmd_ptr &amp;lt;= 0&lt;br&gt;&lt;/div&gt;" style="text;html=1;align=center;verticalAlign=middle;resizable=0;points=[];autosize=1;strokeColor=none;fillColor=none;" vertex="1" parent="1">
          <mxGeometry x="650" y="675" width="160" height="50" as="geometry" />
        </mxCell>
        <mxCell id="DeQcIR5LJ7hlBDvHYIzj-59" value="&lt;div&gt;i2c_ena &amp;lt;= &#39;0&#39;&lt;/div&gt;&lt;div&gt;i2c_rw &amp;lt;= &#39;0&#39;&lt;br&gt;&lt;/div&gt;" style="text;html=1;align=center;verticalAlign=middle;resizable=0;points=[];autosize=1;strokeColor=none;fillColor=none;" vertex="1" parent="1">
          <mxGeometry x="830" y="815" width="90" height="30" as="geometry" />
        </mxCell>
        <mxCell id="DeQcIR5LJ7hlBDvHYIzj-60" value="" style="curved=1;endArrow=classic;html=1;rounded=0;" edge="1" parent="1" source="DeQcIR5LJ7hlBDvHYIzj-34" target="DeQcIR5LJ7hlBDvHYIzj-35">
          <mxGeometry width="50" height="50" relative="1" as="geometry">
            <mxPoint x="730" y="990" as="sourcePoint" />
            <mxPoint x="780" y="940" as="targetPoint" />
            <Array as="points">
              <mxPoint x="630" y="880" />
            </Array>
          </mxGeometry>
        </mxCell>
        <mxCell id="DeQcIR5LJ7hlBDvHYIzj-61" value="/" style="text;html=1;align=center;verticalAlign=middle;resizable=0;points=[];autosize=1;strokeColor=none;fillColor=none;" vertex="1" parent="1">
          <mxGeometry x="620" y="865" width="20" height="20" as="geometry" />
        </mxCell>
        <mxCell id="DeQcIR5LJ7hlBDvHYIzj-62" value="&lt;div&gt;i2c_ena &amp;lt;= &#39;1&#39;&lt;/div&gt;&lt;div&gt;i2c_rw &amp;lt;= &#39;0&#39;&lt;br&gt;&lt;/div&gt;" style="text;html=1;align=center;verticalAlign=middle;resizable=0;points=[];autosize=1;strokeColor=none;fillColor=none;" vertex="1" parent="1">
          <mxGeometry x="540" y="975" width="90" height="30" as="geometry" />
        </mxCell>
        <mxCell id="DeQcIR5LJ7hlBDvHYIzj-63" value="" style="curved=1;endArrow=classic;html=1;rounded=0;" edge="1" parent="1" source="DeQcIR5LJ7hlBDvHYIzj-35" target="DeQcIR5LJ7hlBDvHYIzj-36">
          <mxGeometry width="50" height="50" relative="1" as="geometry">
            <mxPoint x="420" y="1100" as="sourcePoint" />
            <mxPoint x="470" y="1050" as="targetPoint" />
            <Array as="points">
              <mxPoint x="460" y="1100" />
            </Array>
          </mxGeometry>
        </mxCell>
        <mxCell id="DeQcIR5LJ7hlBDvHYIzj-64" value="/ cmd_ptr &amp;lt;= cmd_ptr + 1" style="text;html=1;align=center;verticalAlign=middle;resizable=0;points=[];autosize=1;strokeColor=none;fillColor=none;rotation=-30;" vertex="1" parent="1">
          <mxGeometry x="390" y="1080" width="150" height="20" as="geometry" />
        </mxCell>
        <mxCell id="DeQcIR5LJ7hlBDvHYIzj-65" value="" style="curved=1;endArrow=classic;html=1;rounded=0;" edge="1" parent="1" source="DeQcIR5LJ7hlBDvHYIzj-36" target="DeQcIR5LJ7hlBDvHYIzj-35">
          <mxGeometry width="50" height="50" relative="1" as="geometry">
            <mxPoint x="300" y="1040" as="sourcePoint" />
            <mxPoint x="350" y="990" as="targetPoint" />
            <Array as="points">
              <mxPoint x="400" y="1020" />
            </Array>
          </mxGeometry>
        </mxCell>
        <mxCell id="DeQcIR5LJ7hlBDvHYIzj-66" value="i2c_busy = &#39;0&#39; /" style="text;html=1;align=center;verticalAlign=middle;resizable=0;points=[];autosize=1;strokeColor=none;fillColor=none;rotation=-30;" vertex="1" parent="1">
          <mxGeometry x="350" y="1010" width="90" height="20" as="geometry" />
        </mxCell>
        <mxCell id="DeQcIR5LJ7hlBDvHYIzj-67" value="&lt;div&gt;i2c_ena &amp;lt;= &#39;0&#39;&lt;/div&gt;&lt;div&gt;i2c_rw &amp;lt;= &#39;0&#39;&lt;br&gt;&lt;/div&gt;" style="text;html=1;align=center;verticalAlign=middle;resizable=0;points=[];autosize=1;strokeColor=none;fillColor=none;" vertex="1" parent="1">
          <mxGeometry x="275" y="1160" width="90" height="30" as="geometry" />
        </mxCell>
        <mxCell id="DeQcIR5LJ7hlBDvHYIzj-68" value="" style="curved=1;endArrow=classic;html=1;rounded=0;" edge="1" parent="1" source="DeQcIR5LJ7hlBDvHYIzj-36" target="DeQcIR5LJ7hlBDvHYIzj-37">
          <mxGeometry width="50" height="50" relative="1" as="geometry">
            <mxPoint x="170" y="1010" as="sourcePoint" />
            <mxPoint x="220" y="960" as="targetPoint" />
            <Array as="points">
              <mxPoint x="240" y="1020" />
            </Array>
          </mxGeometry>
        </mxCell>
        <mxCell id="DeQcIR5LJ7hlBDvHYIzj-69" value="1" style="text;html=1;align=center;verticalAlign=middle;resizable=0;points=[];autosize=1;strokeColor=none;fillColor=none;" vertex="1" parent="1">
          <mxGeometry x="820" y="660" width="20" height="20" as="geometry" />
        </mxCell>
        <mxCell id="DeQcIR5LJ7hlBDvHYIzj-70" value="2" style="text;html=1;align=center;verticalAlign=middle;resizable=0;points=[];autosize=1;strokeColor=none;fillColor=none;" vertex="1" parent="1">
          <mxGeometry x="900" y="610" width="20" height="20" as="geometry" />
        </mxCell>
        <mxCell id="DeQcIR5LJ7hlBDvHYIzj-71" value="1" style="text;html=1;align=center;verticalAlign=middle;resizable=0;points=[];autosize=1;strokeColor=none;fillColor=none;" vertex="1" parent="1">
          <mxGeometry x="270" y="1070" width="20" height="20" as="geometry" />
        </mxCell>
        <mxCell id="DeQcIR5LJ7hlBDvHYIzj-72" value="&lt;div&gt;cmd_ptr = 2&lt;/div&gt;&lt;div&gt;and i2c_busy = &#39;0&#39; /&lt;/div&gt;" style="text;html=1;align=center;verticalAlign=middle;resizable=0;points=[];autosize=1;strokeColor=none;fillColor=none;" vertex="1" parent="1">
          <mxGeometry x="140" y="1020" width="120" height="30" as="geometry" />
        </mxCell>
        <mxCell id="DeQcIR5LJ7hlBDvHYIzj-73" value="2" style="text;html=1;align=center;verticalAlign=middle;resizable=0;points=[];autosize=1;strokeColor=none;fillColor=none;" vertex="1" parent="1">
          <mxGeometry x="340" y="1050" width="20" height="20" as="geometry" />
        </mxCell>
        <mxCell id="DeQcIR5LJ7hlBDvHYIzj-74" value="" style="curved=1;endArrow=classic;html=1;rounded=0;" edge="1" parent="1" source="DeQcIR5LJ7hlBDvHYIzj-37" target="DeQcIR5LJ7hlBDvHYIzj-38">
          <mxGeometry width="50" height="50" relative="1" as="geometry">
            <mxPoint x="120" y="850" as="sourcePoint" />
            <mxPoint x="170" y="800" as="targetPoint" />
            <Array as="points">
              <mxPoint x="190" y="800" />
            </Array>
          </mxGeometry>
        </mxCell>
        <mxCell id="DeQcIR5LJ7hlBDvHYIzj-75" value="/" style="text;html=1;align=center;verticalAlign=middle;resizable=0;points=[];autosize=1;strokeColor=none;fillColor=none;" vertex="1" parent="1">
          <mxGeometry x="180" y="790" width="20" height="20" as="geometry" />
        </mxCell>
        <mxCell id="DeQcIR5LJ7hlBDvHYIzj-76" value="&lt;div&gt;i2c_ena &amp;lt;= &#39;0&#39;&lt;/div&gt;&lt;div&gt;i2c_rw &amp;lt;= &#39;0&#39;&lt;br&gt;&lt;/div&gt;" style="text;html=1;align=center;verticalAlign=middle;resizable=0;points=[];autosize=1;strokeColor=none;fillColor=none;" vertex="1" parent="1">
          <mxGeometry x="300" y="890" width="90" height="30" as="geometry" />
        </mxCell>
        <mxCell id="DeQcIR5LJ7hlBDvHYIzj-77" value="&lt;div&gt;i2c_ena &amp;lt;= &#39;1&#39;&lt;/div&gt;&lt;div&gt;i2c_rw &amp;lt;= &#39;0&#39;&lt;br&gt;&lt;/div&gt;" style="text;html=1;align=center;verticalAlign=middle;resizable=0;points=[];autosize=1;strokeColor=none;fillColor=none;" vertex="1" parent="1">
          <mxGeometry x="15" y="830" width="90" height="30" as="geometry" />
        </mxCell>
        <mxCell id="DeQcIR5LJ7hlBDvHYIzj-78" value="" style="curved=1;endArrow=classic;html=1;rounded=0;" edge="1" parent="1" source="DeQcIR5LJ7hlBDvHYIzj-38" target="DeQcIR5LJ7hlBDvHYIzj-39">
          <mxGeometry width="50" height="50" relative="1" as="geometry">
            <mxPoint x="-90" y="770" as="sourcePoint" />
            <mxPoint x="-40" y="720" as="targetPoint" />
            <Array as="points">
              <mxPoint x="-40" y="810" />
            </Array>
          </mxGeometry>
        </mxCell>
        <mxCell id="DeQcIR5LJ7hlBDvHYIzj-79" value="/" style="text;html=1;align=center;verticalAlign=middle;resizable=0;points=[];autosize=1;strokeColor=none;fillColor=none;" vertex="1" parent="1">
          <mxGeometry x="-50" y="810" width="20" height="20" as="geometry" />
        </mxCell>
        <mxCell id="DeQcIR5LJ7hlBDvHYIzj-80" value="" style="curved=1;endArrow=classic;html=1;rounded=0;" edge="1" parent="1" source="DeQcIR5LJ7hlBDvHYIzj-39" target="DeQcIR5LJ7hlBDvHYIzj-40">
          <mxGeometry width="50" height="50" relative="1" as="geometry">
            <mxPoint x="-90" y="720" as="sourcePoint" />
            <mxPoint x="-40" y="670" as="targetPoint" />
            <Array as="points">
              <mxPoint x="-60" y="700" />
            </Array>
          </mxGeometry>
        </mxCell>
        <mxCell id="DeQcIR5LJ7hlBDvHYIzj-81" value="i2c_busy = &#39;0&#39; /" style="text;html=1;align=center;verticalAlign=middle;resizable=0;points=[];autosize=1;strokeColor=none;fillColor=none;" vertex="1" parent="1">
          <mxGeometry x="-60" y="710" width="90" height="20" as="geometry" />
        </mxCell>
        <mxCell id="DeQcIR5LJ7hlBDvHYIzj-82" value="&lt;div&gt;i2c_ena &amp;lt;= &#39;0&#39;&lt;/div&gt;&lt;div&gt;i2c_rw &amp;lt;= &#39;1&#39;&lt;br&gt;&lt;/div&gt;" style="text;html=1;align=center;verticalAlign=middle;resizable=0;points=[];autosize=1;strokeColor=none;fillColor=none;" vertex="1" parent="1">
          <mxGeometry x="-185" y="830" width="90" height="30" as="geometry" />
        </mxCell>
        <mxCell id="DeQcIR5LJ7hlBDvHYIzj-84" value="&lt;div&gt;i2c_ena &amp;lt;= &#39;1&#39;&lt;/div&gt;&lt;div&gt;i2c_rw &amp;lt;= &#39;1&#39;&lt;br&gt;&lt;/div&gt;" style="text;html=1;align=center;verticalAlign=middle;resizable=0;points=[];autosize=1;strokeColor=none;fillColor=none;" vertex="1" parent="1">
          <mxGeometry x="15" y="560" width="90" height="30" as="geometry" />
        </mxCell>
        <mxCell id="DeQcIR5LJ7hlBDvHYIzj-85" value="" style="curved=1;endArrow=classic;html=1;rounded=0;" edge="1" parent="1" source="DeQcIR5LJ7hlBDvHYIzj-40" target="DeQcIR5LJ7hlBDvHYIzj-41">
          <mxGeometry width="50" height="50" relative="1" as="geometry">
            <mxPoint x="-140" y="600" as="sourcePoint" />
            <mxPoint x="-90" y="550" as="targetPoint" />
            <Array as="points">
              <mxPoint x="-50" y="600" />
            </Array>
          </mxGeometry>
        </mxCell>
        <mxCell id="DeQcIR5LJ7hlBDvHYIzj-86" value="/" style="text;html=1;align=center;verticalAlign=middle;resizable=0;points=[];autosize=1;strokeColor=none;fillColor=none;" vertex="1" parent="1">
          <mxGeometry x="-50" y="580" width="20" height="20" as="geometry" />
        </mxCell>
        <mxCell id="DeQcIR5LJ7hlBDvHYIzj-87" value="&lt;div&gt;s_meas_done&lt;/div&gt;&lt;div&gt;_eval&lt;br&gt;&lt;/div&gt;" style="ellipse;whiteSpace=wrap;html=1;aspect=fixed;" vertex="1" parent="1">
          <mxGeometry x="-480" y="680" width="80" height="80" as="geometry" />
        </mxCell>
        <mxCell id="DeQcIR5LJ7hlBDvHYIzj-88" value="" style="curved=1;endArrow=classic;html=1;rounded=0;" edge="1" parent="1" source="DeQcIR5LJ7hlBDvHYIzj-41" target="DeQcIR5LJ7hlBDvHYIzj-87">
          <mxGeometry width="50" height="50" relative="1" as="geometry">
            <mxPoint x="-370" y="650" as="sourcePoint" />
            <mxPoint x="-320" y="600" as="targetPoint" />
            <Array as="points">
              <mxPoint x="-290" y="630" />
            </Array>
          </mxGeometry>
        </mxCell>
        <mxCell id="DeQcIR5LJ7hlBDvHYIzj-89" value="&lt;div&gt;i2c_busy = &#39;0&#39; /&lt;/div&gt;&lt;div&gt;is_done &amp;lt;= i2c_data_rd&lt;br&gt;&lt;/div&gt;" style="text;html=1;align=center;verticalAlign=middle;resizable=0;points=[];autosize=1;strokeColor=none;fillColor=none;rotation=-20;" vertex="1" parent="1">
          <mxGeometry x="-380" y="615" width="140" height="30" as="geometry" />
        </mxCell>
        <mxCell id="DeQcIR5LJ7hlBDvHYIzj-91" value="&lt;div&gt;i2c_ena &amp;lt;= &#39;0&#39;&lt;/div&gt;&lt;div&gt;i2c_rw &amp;lt;= &#39;0&#39;&lt;br&gt;&lt;/div&gt;" style="text;html=1;align=center;verticalAlign=middle;resizable=0;points=[];autosize=1;strokeColor=none;fillColor=none;" vertex="1" parent="1">
          <mxGeometry x="-190" y="560" width="90" height="30" as="geometry" />
        </mxCell>
        <mxCell id="DeQcIR5LJ7hlBDvHYIzj-92" value="" style="curved=1;endArrow=classic;html=1;rounded=0;" edge="1" parent="1" source="DeQcIR5LJ7hlBDvHYIzj-87" target="DeQcIR5LJ7hlBDvHYIzj-94">
          <mxGeometry width="50" height="50" relative="1" as="geometry">
            <mxPoint x="-510" y="630" as="sourcePoint" />
            <mxPoint x="-460" y="580" as="targetPoint" />
            <Array as="points">
              <mxPoint x="-450" y="580" />
            </Array>
          </mxGeometry>
        </mxCell>
        <mxCell id="DeQcIR5LJ7hlBDvHYIzj-93" value="&lt;div&gt;is_done = 0x01 /&lt;/div&gt;cmd_ptr &amp;lt;= cmd_ptr + 1" style="text;html=1;align=center;verticalAlign=middle;resizable=0;points=[];autosize=1;strokeColor=none;fillColor=none;" vertex="1" parent="1">
          <mxGeometry x="-580" y="575" width="140" height="30" as="geometry" />
        </mxCell>
        <mxCell id="DeQcIR5LJ7hlBDvHYIzj-94" value="&lt;div&gt;s_meas_done&lt;/div&gt;&lt;div&gt;_done&lt;br&gt;&lt;/div&gt;" style="ellipse;whiteSpace=wrap;html=1;aspect=fixed;" vertex="1" parent="1">
          <mxGeometry x="-450" y="430" width="80" height="80" as="geometry" />
        </mxCell>
        <mxCell id="DeQcIR5LJ7hlBDvHYIzj-95" value="&lt;div&gt;i2c_ena &amp;lt;= &#39;0&#39;&lt;/div&gt;&lt;div&gt;i2c_rw &amp;lt;= &#39;0&#39;&lt;br&gt;&lt;/div&gt;" style="text;html=1;align=center;verticalAlign=middle;resizable=0;points=[];autosize=1;strokeColor=none;fillColor=none;" vertex="1" parent="1">
          <mxGeometry x="-490" y="760" width="90" height="30" as="geometry" />
        </mxCell>
        <mxCell id="DeQcIR5LJ7hlBDvHYIzj-96" value="&lt;div&gt;i2c_ena &amp;lt;= &#39;0&#39;&lt;/div&gt;&lt;div&gt;i2c_rw &amp;lt;= &#39;0&#39;&lt;br&gt;&lt;/div&gt;" style="text;html=1;align=center;verticalAlign=middle;resizable=0;points=[];autosize=1;strokeColor=none;fillColor=none;" vertex="1" parent="1">
          <mxGeometry x="-540" y="455" width="90" height="30" as="geometry" />
        </mxCell>
        <mxCell id="DeQcIR5LJ7hlBDvHYIzj-97" value="" style="curved=1;endArrow=classic;html=1;rounded=0;" edge="1" parent="1" source="DeQcIR5LJ7hlBDvHYIzj-87" target="DeQcIR5LJ7hlBDvHYIzj-38">
          <mxGeometry width="50" height="50" relative="1" as="geometry">
            <mxPoint x="-442.7520836645135" y="680.0947868645519" as="sourcePoint" />
            <mxPoint x="-270" y="860" as="targetPoint" />
            <Array as="points">
              <mxPoint x="-330" y="770" />
              <mxPoint x="-170" y="950" />
            </Array>
          </mxGeometry>
        </mxCell>
        <mxCell id="DeQcIR5LJ7hlBDvHYIzj-98" value="1" style="text;html=1;align=center;verticalAlign=middle;resizable=0;points=[];autosize=1;strokeColor=none;fillColor=none;" vertex="1" parent="1">
          <mxGeometry x="-460" y="660" width="20" height="20" as="geometry" />
        </mxCell>
        <mxCell id="DeQcIR5LJ7hlBDvHYIzj-99" value="/" style="text;html=1;align=center;verticalAlign=middle;resizable=0;points=[];autosize=1;strokeColor=none;fillColor=none;" vertex="1" parent="1">
          <mxGeometry x="-210" y="900" width="20" height="20" as="geometry" />
        </mxCell>
        <mxCell id="DeQcIR5LJ7hlBDvHYIzj-100" value="2" style="text;html=1;align=center;verticalAlign=middle;resizable=0;points=[];autosize=1;strokeColor=none;fillColor=none;" vertex="1" parent="1">
          <mxGeometry x="-400" y="720" width="20" height="20" as="geometry" />
        </mxCell>
        <mxCell id="DeQcIR5LJ7hlBDvHYIzj-101" value="" style="curved=1;endArrow=classic;html=1;rounded=0;" edge="1" parent="1" source="DeQcIR5LJ7hlBDvHYIzj-94" target="DeQcIR5LJ7hlBDvHYIzj-42">
          <mxGeometry width="50" height="50" relative="1" as="geometry">
            <mxPoint x="-320" y="390" as="sourcePoint" />
            <mxPoint x="-270" y="340" as="targetPoint" />
            <Array as="points">
              <mxPoint x="-280" y="380" />
            </Array>
          </mxGeometry>
        </mxCell>
        <mxCell id="DeQcIR5LJ7hlBDvHYIzj-102" value="/" style="text;html=1;align=center;verticalAlign=middle;resizable=0;points=[];autosize=1;strokeColor=none;fillColor=none;" vertex="1" parent="1">
          <mxGeometry x="-290" y="370" width="20" height="20" as="geometry" />
        </mxCell>
        <mxCell id="DeQcIR5LJ7hlBDvHYIzj-103" value="&lt;div&gt;i2c_ena &amp;lt;= &#39;1&#39;&lt;/div&gt;&lt;div&gt;i2c_rw &amp;lt;= &#39;0&#39;&lt;br&gt;&lt;/div&gt;" style="text;html=1;align=center;verticalAlign=middle;resizable=0;points=[];autosize=1;strokeColor=none;fillColor=none;" vertex="1" parent="1">
          <mxGeometry x="-155" y="430" width="90" height="30" as="geometry" />
        </mxCell>
        <mxCell id="DeQcIR5LJ7hlBDvHYIzj-104" value="" style="curved=1;endArrow=classic;html=1;rounded=0;" edge="1" parent="1" source="DeQcIR5LJ7hlBDvHYIzj-42" target="DeQcIR5LJ7hlBDvHYIzj-43">
          <mxGeometry width="50" height="50" relative="1" as="geometry">
            <mxPoint x="-100" y="270" as="sourcePoint" />
            <mxPoint x="-50" y="220" as="targetPoint" />
            <Array as="points">
              <mxPoint x="-50" y="320" />
            </Array>
          </mxGeometry>
        </mxCell>
        <mxCell id="DeQcIR5LJ7hlBDvHYIzj-105" value="/" style="text;html=1;align=center;verticalAlign=middle;resizable=0;points=[];autosize=1;strokeColor=none;fillColor=none;" vertex="1" parent="1">
          <mxGeometry x="-70" y="300" width="20" height="20" as="geometry" />
        </mxCell>
        <mxCell id="DeQcIR5LJ7hlBDvHYIzj-106" value="&lt;div&gt;i2c_ena &amp;lt;= &#39;0&#39;&lt;/div&gt;&lt;div&gt;i2c_rw &amp;lt;= &#39;1&#39;&lt;br&gt;&lt;/div&gt;" style="text;html=1;align=center;verticalAlign=middle;resizable=0;points=[];autosize=1;strokeColor=none;fillColor=none;" vertex="1" parent="1">
          <mxGeometry x="15" y="240" width="90" height="30" as="geometry" />
        </mxCell>
        <mxCell id="DeQcIR5LJ7hlBDvHYIzj-107" value="" style="curved=1;endArrow=classic;html=1;rounded=0;" edge="1" parent="1" source="DeQcIR5LJ7hlBDvHYIzj-43" target="DeQcIR5LJ7hlBDvHYIzj-44">
          <mxGeometry width="50" height="50" relative="1" as="geometry">
            <mxPoint y="410" as="sourcePoint" />
            <mxPoint x="50" y="360" as="targetPoint" />
            <Array as="points">
              <mxPoint x="40" y="400" />
            </Array>
          </mxGeometry>
        </mxCell>
        <mxCell id="DeQcIR5LJ7hlBDvHYIzj-108" value="/ data_rd_cnt &amp;lt;= 0" style="text;html=1;align=center;verticalAlign=middle;resizable=0;points=[];autosize=1;strokeColor=none;fillColor=none;rotation=35;" vertex="1" parent="1">
          <mxGeometry x="5" y="399" width="110" height="20" as="geometry" />
        </mxCell>
        <mxCell id="DeQcIR5LJ7hlBDvHYIzj-109" value="&lt;div&gt;i2c_ena &amp;lt;= &#39;1&#39;&lt;/div&gt;&lt;div&gt;i2c_rw &amp;lt;= &#39;1&#39;&lt;br&gt;&lt;/div&gt;" style="text;html=1;align=center;verticalAlign=middle;resizable=0;points=[];autosize=1;strokeColor=none;fillColor=none;" vertex="1" parent="1">
          <mxGeometry x="40" y="450" width="90" height="30" as="geometry" />
        </mxCell>
        <mxCell id="DeQcIR5LJ7hlBDvHYIzj-110" value="&lt;div&gt;i2c_ena &amp;lt;= &#39;1&#39;&lt;/div&gt;&lt;div&gt;i2c_rw &amp;lt;= &#39;1&#39;&lt;br&gt;&lt;/div&gt;" style="text;html=1;align=center;verticalAlign=middle;resizable=0;points=[];autosize=1;strokeColor=none;fillColor=none;" vertex="1" parent="1">
          <mxGeometry x="305" y="255" width="90" height="30" as="geometry" />
        </mxCell>
        <mxCell id="DeQcIR5LJ7hlBDvHYIzj-113" value="" style="curved=1;endArrow=classic;html=1;rounded=0;" edge="1" parent="1" source="DeQcIR5LJ7hlBDvHYIzj-44" target="DeQcIR5LJ7hlBDvHYIzj-45">
          <mxGeometry width="50" height="50" relative="1" as="geometry">
            <mxPoint x="100" y="430" as="sourcePoint" />
            <mxPoint x="150" y="380" as="targetPoint" />
            <Array as="points">
              <mxPoint x="240" y="360" />
            </Array>
          </mxGeometry>
        </mxCell>
        <mxCell id="DeQcIR5LJ7hlBDvHYIzj-115" value="/" style="text;html=1;align=center;verticalAlign=middle;resizable=0;points=[];autosize=1;strokeColor=none;fillColor=none;" vertex="1" parent="1">
          <mxGeometry x="215" y="360" width="20" height="20" as="geometry" />
        </mxCell>
        <mxCell id="DeQcIR5LJ7hlBDvHYIzj-116" value="" style="curved=1;endArrow=classic;html=1;rounded=0;" edge="1" parent="1" source="DeQcIR5LJ7hlBDvHYIzj-45" target="DeQcIR5LJ7hlBDvHYIzj-122">
          <mxGeometry width="50" height="50" relative="1" as="geometry">
            <mxPoint x="270" y="540" as="sourcePoint" />
            <mxPoint x="460" y="380" as="targetPoint" />
            <Array as="points">
              <mxPoint x="460" y="360" />
            </Array>
          </mxGeometry>
        </mxCell>
        <mxCell id="DeQcIR5LJ7hlBDvHYIzj-117" value="&lt;div&gt;i2c_busy = &#39;0&#39; /&lt;/div&gt;&lt;div&gt;data_rd(data_rd_cnt) &amp;lt;= i2c_data_rd&lt;br&gt;&lt;/div&gt;&lt;div&gt;if (data_rd_cnt = 1)&lt;/div&gt;&lt;div&gt;irq_out(0) &amp;lt;= &#39;1&#39;&lt;/div&gt;&lt;div&gt;elsif(data_rd_cnt = 3)&lt;/div&gt;&lt;div&gt;irq_out(1) = &#39;1&#39;&lt;/div&gt;&lt;div&gt;end if&lt;br&gt;&lt;/div&gt;" style="text;html=1;align=center;verticalAlign=middle;resizable=0;points=[];autosize=1;strokeColor=none;fillColor=none;" vertex="1" parent="1">
          <mxGeometry x="395" y="299" width="210" height="100" as="geometry" />
        </mxCell>
        <mxCell id="DeQcIR5LJ7hlBDvHYIzj-118" value="2" style="text;html=1;align=center;verticalAlign=middle;resizable=0;points=[];autosize=1;strokeColor=none;fillColor=none;" vertex="1" parent="1">
          <mxGeometry x="195" y="418" width="20" height="20" as="geometry" />
        </mxCell>
        <mxCell id="DeQcIR5LJ7hlBDvHYIzj-119" value="" style="curved=1;endArrow=classic;html=1;rounded=0;" edge="1" parent="1" source="DeQcIR5LJ7hlBDvHYIzj-44" target="DeQcIR5LJ7hlBDvHYIzj-46">
          <mxGeometry width="50" height="50" relative="1" as="geometry">
            <mxPoint x="100" y="430" as="sourcePoint" />
            <mxPoint x="150" y="380" as="targetPoint" />
            <Array as="points">
              <mxPoint x="210" y="590" />
            </Array>
          </mxGeometry>
        </mxCell>
        <mxCell id="DeQcIR5LJ7hlBDvHYIzj-120" value="1" style="text;html=1;align=center;verticalAlign=middle;resizable=0;points=[];autosize=1;strokeColor=none;fillColor=none;" vertex="1" parent="1">
          <mxGeometry x="165" y="498" width="20" height="20" as="geometry" />
        </mxCell>
        <mxCell id="DeQcIR5LJ7hlBDvHYIzj-121" value="&lt;div&gt;data_rd_cnt = 5 / &lt;/div&gt;" style="text;html=1;align=center;verticalAlign=middle;resizable=0;points=[];autosize=1;strokeColor=none;fillColor=none;rotation=31;" vertex="1" parent="1">
          <mxGeometry x="170" y="575" width="110" height="20" as="geometry" />
        </mxCell>
        <mxCell id="DeQcIR5LJ7hlBDvHYIzj-122" value="&lt;div&gt;s_rd_meas&lt;/div&gt;&lt;div&gt;_incr&lt;/div&gt;" style="ellipse;whiteSpace=wrap;html=1;aspect=fixed;" vertex="1" parent="1">
          <mxGeometry x="420" y="418" width="80" height="80" as="geometry" />
        </mxCell>
        <mxCell id="DeQcIR5LJ7hlBDvHYIzj-123" value="&lt;div&gt;i2c_ena &amp;lt;= &#39;1&#39;&lt;/div&gt;&lt;div&gt;i2c_rw &amp;lt;= &#39;1&#39;&lt;br&gt;&lt;/div&gt;" style="text;html=1;align=center;verticalAlign=middle;resizable=0;points=[];autosize=1;strokeColor=none;fillColor=none;" vertex="1" parent="1">
          <mxGeometry x="420" y="500" width="90" height="30" as="geometry" />
        </mxCell>
        <mxCell id="DeQcIR5LJ7hlBDvHYIzj-124" value="" style="curved=1;endArrow=classic;html=1;rounded=0;" edge="1" parent="1" source="DeQcIR5LJ7hlBDvHYIzj-122" target="DeQcIR5LJ7hlBDvHYIzj-44">
          <mxGeometry width="50" height="50" relative="1" as="geometry">
            <mxPoint x="250" y="490" as="sourcePoint" />
            <mxPoint x="300" y="440" as="targetPoint" />
            <Array as="points">
              <mxPoint x="310" y="500" />
            </Array>
          </mxGeometry>
        </mxCell>
        <mxCell id="DeQcIR5LJ7hlBDvHYIzj-125" value="/ data_rd_cnt &amp;lt;= data_rd_cnt + 1" style="text;html=1;align=center;verticalAlign=middle;resizable=0;points=[];autosize=1;strokeColor=none;fillColor=none;" vertex="1" parent="1">
          <mxGeometry x="220" y="490" width="190" height="20" as="geometry" />
        </mxCell>
        <mxCell id="DeQcIR5LJ7hlBDvHYIzj-126" value="&lt;div&gt;i2c_ena &amp;lt;= &#39;0&#39;&lt;/div&gt;&lt;div&gt;i2c_rw &amp;lt;= &#39;0&#39;&lt;br&gt;&lt;/div&gt;" style="text;html=1;align=center;verticalAlign=middle;resizable=0;points=[];autosize=1;strokeColor=none;fillColor=none;" vertex="1" parent="1">
          <mxGeometry x="410" y="595" width="90" height="30" as="geometry" />
        </mxCell>
        <mxCell id="DeQcIR5LJ7hlBDvHYIzj-129" value="&lt;div&gt;s_irq&lt;/div&gt;" style="ellipse;whiteSpace=wrap;html=1;aspect=fixed;" vertex="1" parent="1">
          <mxGeometry x="410" y="735" width="80" height="80" as="geometry" />
        </mxCell>
        <mxCell id="DeQcIR5LJ7hlBDvHYIzj-130" value="" style="curved=1;endArrow=classic;html=1;rounded=0;" edge="1" parent="1" source="DeQcIR5LJ7hlBDvHYIzj-46" target="DeQcIR5LJ7hlBDvHYIzj-129">
          <mxGeometry width="50" height="50" relative="1" as="geometry">
            <mxPoint x="320" y="770" as="sourcePoint" />
            <mxPoint x="500" y="810" as="targetPoint" />
            <Array as="points">
              <mxPoint x="360" y="720" />
            </Array>
          </mxGeometry>
        </mxCell>
        <mxCell id="DeQcIR5LJ7hlBDvHYIzj-131" value="&lt;div&gt;i2c_busy = &#39;0&#39; /&lt;/div&gt;&lt;div&gt;&lt;div&gt;data_rd(data_rd_cnt) &amp;lt;= i2c_data_rd&lt;/div&gt;irq_out(2) &amp;lt;= &#39;1&#39;&lt;/div&gt;&lt;div&gt;cmd_ptr &amp;lt;= 0&lt;br&gt;&lt;/div&gt;" style="text;html=1;align=center;verticalAlign=middle;resizable=0;points=[];autosize=1;strokeColor=none;fillColor=none;" vertex="1" parent="1">
          <mxGeometry x="165" y="680" width="210" height="60" as="geometry" />
        </mxCell>
        <mxCell id="DeQcIR5LJ7hlBDvHYIzj-132" value="&lt;div&gt;i2c_ena &amp;lt;= &#39;0&#39;&lt;/div&gt;&lt;div&gt;i2c_rw &amp;lt;= &#39;0&#39;&lt;br&gt;&lt;/div&gt;" style="text;html=1;align=center;verticalAlign=middle;resizable=0;points=[];autosize=1;strokeColor=none;fillColor=none;" vertex="1" parent="1">
          <mxGeometry x="490" y="760" width="90" height="30" as="geometry" />
        </mxCell>
        <mxCell id="DeQcIR5LJ7hlBDvHYIzj-133" value="" style="curved=1;endArrow=classic;html=1;rounded=0;" edge="1" parent="1" source="DeQcIR5LJ7hlBDvHYIzj-129" target="DeQcIR5LJ7hlBDvHYIzj-35">
          <mxGeometry width="50" height="50" relative="1" as="geometry">
            <mxPoint x="450" y="890" as="sourcePoint" />
            <mxPoint x="500" y="840" as="targetPoint" />
            <Array as="points" />
          </mxGeometry>
        </mxCell>
        <mxCell id="DeQcIR5LJ7hlBDvHYIzj-134" value="&lt;div&gt;/ irq_out &amp;lt;= &quot;000&quot;&lt;/div&gt;" style="text;html=1;align=center;verticalAlign=middle;resizable=0;points=[];autosize=1;strokeColor=none;fillColor=none;" vertex="1" parent="1">
          <mxGeometry x="465" y="845" width="110" height="20" as="geometry" />
        </mxCell>
      </root>
    </mxGraphModel>
  </diagram>
</mxfile>
